<?xml version="1.0" standalone="no"?>
<!DOCTYPE svg PUBLIC "-//W3C//DTD SVG 20010904//EN"
 "http://www.w3.org/TR/2001/REC-SVG-20010904/DTD/svg10.dtd">
<svg version="1.0" xmlns="http://www.w3.org/2000/svg"
 width="1002.000000pt" height="238.000000pt" viewBox="0 0 1002.000000 238.000000"
 preserveAspectRatio="xMidYMid meet">

<g transform="translate(0.000000,238.000000) scale(0.100000,-0.100000)"
fill="#000000" stroke="none">
<path d="M785 1775 c-66 -46 -137 -97 -157 -112 l-38 -27 0 -348 0 -348 675 0
c636 0 675 1 676 18 2 96 0 384 -4 388 -2 3 -58 5 -123 6 l-119 1 -3 -76 -3
-77 -419 0 -420 0 0 153 0 152 72 52 72 52 346 -2 345 -2 3 -77 3 -78 124 0
c112 0 125 2 125 18 1 21 1 339 0 370 l0 22 -518 0 -517 0 -120 -85z"/>
<path d="M2120 1400 l0 -460 130 0 130 0 0 165 0 165 420 0 420 0 0 -165 0
-165 130 0 130 0 0 295 0 295 -550 0 -550 0 0 165 0 165 -130 0 -130 0 0 -460z"/>
<path d="M3894 1827 c-21 -18 -83 -68 -138 -110 l-98 -78 0 -57 c0 -31 1 -76
1 -99 l1 -43 125 0 125 0 0 38 c0 33 6 41 55 80 l55 42 368 -2 367 -3 2 -55
c1 -30 2 -65 2 -77 1 -23 3 -23 126 -23 l125 0 0 210 0 210 -538 0 -538 0 -40
-33z"/>
<path d="M5190 1400 l0 -460 130 0 130 0 0 95 0 95 356 0 356 0 68 -47 c57
-40 69 -53 70 -75 l0 -28 130 0 130 0 0 93 -1 92 -161 113 -161 112 -393 0
-394 0 0 105 0 105 358 -1 357 0 65 -48 c47 -34 66 -54 68 -73 3 -27 3 -27
105 -30 56 -2 114 -2 130 0 l27 3 -1 92 0 92 -162 112 -162 113 -522 0 -523 0
0 -460z"/>
<path d="M6883 1752 l-138 -108 -3 -102 -3 -102 126 0 c123 0 125 0 126 23 1
12 1 27 0 34 -1 6 24 32 55 57 l56 46 369 0 369 0 0 -80 0 -80 125 0 c93 0
125 3 126 13 0 16 0 367 0 390 -1 16 -33 17 -535 17 l-534 0 -139 -108z"/>
<path d="M8270 1730 l0 -130 92 0 c89 0 109 -5 488 -116 l395 -116 190 0 190
0 3 246 2 246 -130 0 -130 0 0 -120 0 -120 -34 0 c-18 0 -150 34 -292 76 -589
172 -557 164 -671 164 l-103 0 0 -130z"/>
<path d="M8270 1225 l0 -285 130 0 130 0 0 144 0 145 73 -20 c39 -11 202 -58
362 -105 215 -62 304 -84 347 -84 l58 0 0 -40 0 -40 130 0 130 0 0 170 0 170
-176 0 -176 0 -395 115 -396 115 -108 0 -109 0 0 -285z"/>
<path d="M3718 1372 c-55 -3 -58 -4 -59 -30 0 -24 0 -323 1 -379 0 -23 2 -23
125 -23 l125 0 0 90 0 90 424 0 425 0 -1 -87 0 -88 126 -3 126 -3 0 216 0 215
-57 0 c-332 3 -1191 4 -1235 2z"/>
<path d="M6773 1372 l-33 -3 0 -215 0 -215 126 3 126 3 1 85 2 85 423 3 422 2
0 -90 0 -90 125 0 125 0 0 38 c1 47 1 362 0 382 0 13 -78 15 -642 15 -354 0
-658 -1 -675 -3z"/>
<path d="M2893 579 c-19 -6 -35 -18 -39 -32 -17 -50 8 -81 79 -98 63 -14 77
-24 77 -55 0 -46 -86 -61 -134 -23 -35 27 -54 20 -28 -11 15 -19 31 -24 80
-28 55 -4 63 -2 86 21 51 51 28 97 -59 118 -82 20 -107 54 -61 84 27 18 85 12
102 -10 12 -16 34 -20 34 -7 0 32 -82 57 -137 41z"/>
<path d="M3592 479 c3 -97 4 -102 32 -126 25 -22 37 -25 79 -20 78 7 91 27 95
147 3 86 2 100 -12 100 -13 0 -16 -14 -16 -89 0 -106 -18 -141 -75 -141 -57 0
-75 35 -75 141 0 75 -3 89 -16 89 -14 0 -15 -14 -12 -101z"/>
<path d="M4389 563 c-3 -96 -1 -225 4 -230 12 -11 16 1 20 52 l3 50 41 3 c40
3 42 2 74 -52 19 -31 39 -56 46 -56 19 0 16 10 -17 60 -27 40 -41 74 -23 57
10 -11 53 34 53 55 0 22 -18 60 -34 70 -6 4 -46 8 -88 8 -67 0 -78 -2 -79 -17z
m155 -19 c9 -8 16 -23 16 -32 0 -35 -18 -46 -83 -50 l-65 -4 0 51 -1 51 59 0
c40 0 64 -5 74 -16z"/>
<path d="M5159 560 c0 -11 0 -63 0 -115 0 -52 0 -99 0 -105 1 -6 40 -10 96
-10 57 0 95 4 95 10 0 10 -42 14 -117 11 -45 -2 -53 7 -50 64 l2 30 73 3 c96
4 93 22 -4 22 l-75 0 3 43 3 42 78 3 c108 4 97 22 -13 22 -83 0 -90 -2 -91
-20z"/>
<path d="M5900 455 l0 -125 58 0 c112 0 174 64 156 158 -13 67 -53 92 -145 92
l-69 0 0 -125z m155 82 c34 -29 44 -91 21 -135 -17 -34 -71 -57 -116 -50 -24
3 -25 5 -28 106 l-3 102 50 0 c37 0 56 -6 76 -23z"/>
<path d="M6690 570 c-1 -5 -1 -50 -1 -100 0 -49 0 -101 1 -115 0 -23 4 -25 46
-25 105 0 154 37 161 119 5 54 -22 106 -63 121 -33 13 -144 13 -144 0z m151
-39 c32 -32 38 -79 18 -125 -22 -47 -132 -75 -144 -37 -3 10 -5 57 -3 105 l2
86 49 0 c40 0 53 -5 78 -29z"/>
<path d="M7360 455 c0 -104 2 -125 15 -125 13 0 15 21 15 125 0 104 -2 125
-15 125 -13 0 -15 -21 -15 -125z"/>
</g>
</svg>
